<svg width="1640" height="1500" viewBox="0 300 1290 1100" fill="none" xmlns="http://www.w3.org/2000/svg">
<g clip-path="url(#clip0_1_10)">
<path opacity="0.0144928" d="M1082.3 1399.57C1089.71 1407.58 1101.53 1409.73 1111.29 1404.83L1421.23 1249.08C1427 1246.18 1431.39 1241.12 1433.45 1235L1591.78 764.386C1593.4 759.573 1593.48 754.375 1592.02 749.512L1466.69 333.092C1464.03 324.274 1456.66 317.689 1447.6 316.045L1149.97 262.038C1140.91 260.394 1131.7 263.969 1126.11 271.291L862.465 617.128C859.386 621.167 857.638 626.063 857.463 631.138L840.346 1127.38C840.123 1133.83 842.458 1140.11 846.841 1144.85L1082.3 1399.57Z" stroke="url(#paint0_radial_1_10)" stroke-opacity="0.5" stroke-width="4.26119"/>
<path opacity="0.0289855" d="M1031.39 1380.07C1038.36 1388.43 1050.02 1391.18 1060 1386.83L1375.61 1249.02C1381.54 1246.43 1386.2 1241.61 1388.59 1235.59L1569.86 778.238C1571.74 773.503 1572.1 768.3 1570.88 763.354L1467.84 344.721C1465.64 335.791 1458.63 328.844 1449.68 326.731L1157.04 257.635C1148.09 255.521 1138.71 258.598 1132.75 265.602L853.338 593.934C850.037 597.813 848.026 602.625 847.587 607.7L805.152 1097.84C804.595 1104.28 806.607 1110.68 810.75 1115.65L1031.39 1380.07Z" stroke="url(#paint1_radial_1_10)" stroke-opacity="0.5" stroke-width="4.26119"/>
<path opacity="0.0434783" d="M981.419 1359.15C987.945 1367.84 999.409 1371.18 1009.58 1367.38L1329.84 1247.67C1335.9 1245.41 1340.83 1240.83 1343.53 1234.94L1546.81 791.949C1548.94 787.305 1549.57 782.111 1548.6 777.094L1467.74 357.43C1466 348.412 1459.36 341.123 1450.55 338.547L1163.65 254.734C1154.83 252.159 1145.32 254.73 1139 261.395L844.937 571.53C841.422 575.238 839.153 579.952 838.449 585.012L771.286 1067.77C770.394 1074.19 772.078 1080.69 775.97 1085.87L981.419 1359.15Z" stroke="url(#paint2_radial_1_10)" stroke-opacity="0.5" stroke-width="4.26119"/>
<path opacity="0.057971" d="M932.462 1336.88C938.523 1345.86 949.759 1349.79 960.095 1346.55L1283.97 1245.05C1290.16 1243.11 1295.33 1238.79 1298.34 1233.05L1522.63 805.456C1525.01 800.917 1525.9 795.746 1525.19 790.671L1466.33 371.139C1465.06 362.056 1458.82 354.446 1450.16 351.416L1169.74 253.297C1161.08 250.268 1151.46 252.327 1144.8 258.634L837.216 549.948C833.495 553.473 830.972 558.075 830.004 563.108L738.766 1037.25C737.541 1043.62 738.891 1050.22 742.521 1055.6L932.462 1336.88Z" stroke="url(#paint3_radial_1_10)" stroke-opacity="0.5" stroke-width="4.26119"/>
<path opacity="0.0724638" d="M884.582 1313.33C890.165 1322.57 901.144 1327.07 911.61 1324.4L1238.09 1241.15C1244.39 1239.55 1249.79 1235.51 1253.1 1229.92L1497.34 818.701C1499.96 814.281 1501.13 809.146 1500.67 804.025L1463.58 385.768C1462.78 376.645 1456.95 368.734 1448.47 365.261L1175.23 253.281C1166.76 249.808 1157.05 251.352 1150.07 257.283L830.125 529.219C826.208 532.548 823.437 537.026 822.205 542.018L707.608 1006.37C706.051 1012.67 707.063 1019.34 710.421 1024.9L884.582 1313.33Z" stroke="url(#paint4_radial_1_10)" stroke-opacity="0.5" stroke-width="4.26119"/>
<path opacity="0.0869565" d="M837.838 1288.56C842.931 1298.05 853.625 1303.1 864.19 1301.01L1192.26 1236C1198.64 1234.73 1204.26 1230.98 1207.87 1225.57L1470.96 831.625C1473.82 827.336 1475.26 822.252 1475.07 817.098L1459.45 401.235C1459.11 392.094 1453.7 383.906 1445.43 380L1180.05 254.64C1171.78 250.734 1162.02 251.759 1154.75 257.299L823.617 509.369C819.513 512.493 816.499 516.832 815.006 521.769L677.82 975.185C675.936 981.413 676.606 988.134 679.683 993.867L837.838 1288.56Z" stroke="url(#paint5_radial_1_10)" stroke-opacity="0.5" stroke-width="4.26119"/>
<path opacity="0.101449" d="M792.287 1262.65C796.88 1272.35 807.259 1277.94 817.891 1276.43L1146.54 1229.59C1152.99 1228.67 1158.81 1225.22 1162.71 1220L1443.52 844.171C1446.62 840.026 1448.32 835.007 1448.39 829.833L1453.9 417.454C1454.02 408.32 1449.06 399.878 1441.01 395.55L1184.14 257.324C1176.09 252.996 1166.31 253.501 1158.76 258.635L817.638 490.422C813.359 493.33 810.109 497.518 808.356 502.386L649.408 943.79C647.2 949.921 647.526 956.679 650.313 962.57L792.287 1262.65Z" stroke="url(#paint6_radial_1_10)" stroke-opacity="0.5" stroke-width="4.26119"/>
<path opacity="0.115942" d="M747.978 1235.67C752.062 1245.57 762.101 1251.67 772.768 1250.74L1101 1221.96C1107.5 1221.39 1113.51 1218.25 1117.69 1213.23L1415.05 856.283C1418.37 852.294 1420.34 847.354 1420.67 842.173L1446.9 434.339C1447.49 425.237 1442.97 416.564 1435.18 411.827L1187.42 261.279C1179.63 256.543 1169.85 256.528 1162.04 261.241L812.139 472.398C807.695 475.08 804.217 479.105 802.207 483.891L622.373 912.257C619.847 918.275 619.826 925.053 622.315 931.086L747.978 1235.67Z" stroke="url(#paint7_radial_1_10)" stroke-opacity="0.5" stroke-width="4.26119"/>
<path opacity="0.130435" d="M704.96 1207.71C708.527 1217.78 718.199 1224.37 728.87 1224.02L1055.7 1213.12C1062.24 1212.9 1068.41 1210.08 1072.86 1205.29L1385.57 867.909C1389.11 864.089 1391.34 859.24 1391.94 854.066L1438.44 451.806C1439.48 442.759 1435.42 433.878 1427.9 428.748L1189.84 266.45C1182.32 261.32 1172.57 260.787 1164.53 265.066L807.068 455.317C802.47 457.764 798.771 461.613 796.509 466.304L596.713 880.667C593.873 886.556 593.505 893.334 595.689 899.496L704.96 1207.71Z" stroke="url(#paint8_radial_1_10)" stroke-opacity="0.5" stroke-width="4.26119"/>
<path opacity="0.144928" d="M663.272 1178.85C666.317 1189.05 675.598 1196.12 686.24 1196.34L1010.71 1203.1C1017.26 1203.23 1023.58 1200.74 1028.28 1196.18L1355.13 878.997C1358.88 875.357 1361.37 870.613 1362.23 865.459L1428.48 469.766C1429.98 460.798 1426.39 451.735 1419.15 446.226L1191.35 272.778C1184.11 267.269 1174.42 266.221 1166.17 270.054L802.37 439.193C797.631 441.397 793.72 445.057 791.21 449.641L572.418 849.095C569.273 854.838 568.557 861.601 570.43 867.875L663.272 1178.85Z" stroke="url(#paint9_radial_1_10)" stroke-opacity="0.5" stroke-width="4.26119"/>
<path opacity="0.15942" d="M622.952 1149.17C625.47 1159.48 634.337 1166.99 644.919 1167.79L966.081 1191.92C972.621 1192.41 979.085 1190.26 984.027 1185.94L1323.75 889.496C1327.7 886.048 1330.44 881.424 1331.57 876.302L1417.01 488.132C1418.97 479.265 1415.85 470.045 1408.93 464.174L1191.88 280.2C1184.95 274.329 1175.35 272.769 1166.92 276.148L797.993 424.039C793.126 425.99 789.013 429.452 786.259 433.914L549.478 817.618C546.034 823.199 544.971 829.928 546.528 836.299L622.952 1149.17Z" stroke="url(#paint10_radial_1_10)" stroke-opacity="0.5" stroke-width="4.26119"/>
<path opacity="0.173913" d="M584.031 1118.75C586.019 1129.13 594.45 1137.08 604.94 1138.44L921.873 1179.61C928.388 1180.46 934.969 1178.65 940.14 1174.6L1291.48 899.362C1295.62 896.116 1298.61 891.624 1300 886.548L1404.04 506.817C1406.43 498.073 1403.81 488.722 1397.21 482.506L1191.39 288.652C1184.79 282.436 1175.29 280.372 1166.71 283.287L793.883 409.863C788.9 411.555 784.594 414.806 781.603 419.135L527.876 786.309C524.141 791.713 522.733 798.391 523.968 804.843L584.031 1118.75Z" stroke="url(#paint11_radial_1_10)" stroke-opacity="0.5" stroke-width="4.26119"/>
<path opacity="0.188406" d="M546.537 1087.67C547.993 1098.11 555.968 1106.45 566.335 1108.38L878.144 1166.22C884.614 1167.42 891.294 1165.97 896.681 1162.19L1258.35 908.549C1262.67 905.517 1265.9 901.169 1267.55 896.153L1389.55 525.733C1392.38 517.136 1390.24 507.678 1383.99 501.136L1189.83 298.069C1183.57 291.527 1174.22 288.966 1165.51 291.409L789.988 396.674C784.903 398.1 780.415 401.13 777.192 405.313L507.592 755.244C503.576 760.457 501.826 767.065 502.735 773.582L546.537 1087.67Z" stroke="url(#paint12_radial_1_10)" stroke-opacity="0.5" stroke-width="4.26119"/>
<path opacity="0.202899" d="M510.489 1056.03C511.414 1066.5 518.913 1075.21 529.127 1077.68L834.943 1151.77C841.349 1153.32 848.11 1152.23 853.699 1148.73L1224.41 917.015C1228.9 914.206 1232.37 910.015 1234.28 905.072L1373.54 544.793C1376.8 536.364 1375.15 526.826 1369.26 519.977L1187.16 308.383C1181.27 301.533 1172.08 298.484 1163.26 300.45L786.252 384.474C781.079 385.626 776.42 388.425 772.973 392.451L488.601 724.493C484.314 729.499 482.224 736.021 482.804 742.586L510.489 1056.03Z" stroke="url(#paint13_radial_1_10)" stroke-opacity="0.5" stroke-width="4.26119"/>
<path opacity="0.217391" d="M475.906 1023.9C476.3 1034.37 483.306 1043.43 493.338 1046.44L792.323 1136.3C798.646 1138.2 805.468 1137.47 811.244 1134.27L1189.7 924.72C1194.36 922.143 1198.05 918.122 1200.21 913.265L1356.02 563.911C1359.7 555.672 1358.55 546.079 1353.03 538.943L1183.35 319.523C1177.83 312.386 1168.84 308.859 1159.94 310.343L782.623 373.262C777.377 374.137 772.557 376.696 768.893 380.551L470.875 694.125C466.327 698.911 463.903 705.329 464.151 711.927L475.906 1023.9Z" stroke="url(#paint14_radial_1_10)" stroke-opacity="0.5" stroke-width="4.26119"/>
<path opacity="0.231884" d="M442.799 991.38C442.666 1001.82 449.163 1011.2 458.984 1014.74L750.333 1119.86C756.554 1122.1 763.418 1121.74 769.366 1118.84L1154.28 931.628C1159.08 929.293 1162.99 925.454 1165.41 920.694L1337.01 583.003C1341.09 574.973 1340.44 565.353 1335.31 557.949L1178.36 331.418C1173.23 324.014 1164.46 320.022 1155.5 321.021L779.049 363.039C773.743 363.631 768.776 365.94 764.903 369.614L454.385 664.209C449.587 668.761 446.833 675.059 446.748 681.672L442.799 991.38Z" stroke="url(#paint15_radial_1_10)" stroke-opacity="0.5" stroke-width="4.26119"/>
<path opacity="0.246377" d="M411.175 958.548C410.519 968.932 416.492 978.598 426.073 982.656L709.017 1102.48C715.118 1105.07 722.004 1105.07 728.107 1102.49L1118.18 937.706C1123.12 935.621 1127.24 931.975 1129.9 927.326L1316.52 601.984C1320.99 594.184 1320.83 584.561 1316.1 576.912L1172.17 343.997C1167.44 336.348 1158.91 331.903 1149.93 332.415L775.476 353.797C770.126 354.103 765.024 356.154 760.951 359.636L439.092 634.811C434.056 639.116 430.979 645.277 430.561 651.889L411.175 958.548Z" stroke="url(#paint16_radial_1_10)" stroke-opacity="0.5" stroke-width="4.26119"/>
<path opacity="0.26087" d="M381.035 925.492C379.861 935.794 385.298 945.719 394.612 950.276L668.417 1084.22C674.379 1087.14 681.268 1087.51 687.51 1085.26L1081.47 942.922C1086.53 941.095 1090.84 937.653 1093.75 933.128L1294.56 620.773C1299.41 613.222 1299.75 603.623 1295.43 595.751L1164.74 357.186C1160.43 349.315 1152.16 344.431 1143.18 344.457L771.853 345.531C766.474 345.547 761.249 347.332 756.985 350.611L424.958 605.993C419.697 610.039 416.303 616.046 415.551 622.64L381.035 925.492Z" stroke="url(#paint17_radial_1_10)" stroke-opacity="0.5" stroke-width="4.26119"/>
<path opacity="0.275362" d="M352.377 892.295C350.692 902.489 355.583 912.644 364.603 917.682L628.575 1065.12C634.379 1068.36 641.252 1069.1 647.615 1067.18L1044.19 947.249C1049.35 945.686 1053.86 942.459 1057.01 938.07L1271.16 639.288C1276.38 632.006 1277.21 622.455 1273.32 614.383L1156.07 370.912C1152.18 362.84 1144.2 357.533 1135.25 357.074L768.129 338.229C762.736 337.952 757.403 339.464 752.958 342.531L411.942 577.815C406.469 581.591 402.766 587.428 401.682 593.987L352.377 892.295Z" stroke="url(#paint18_radial_1_10)" stroke-opacity="0.5" stroke-width="4.26119"/>
<path opacity="0.289855" d="M325.192 859.043C323.004 869.103 327.339 879.457 336.04 884.959L589.525 1045.23C595.154 1048.78 601.99 1049.9 608.458 1048.31L1006.38 950.661C1011.65 949.369 1016.34 946.368 1019.71 942.127L1246.36 657.453C1251.93 650.456 1253.24 640.98 1249.79 632.73L1146.13 385.101C1142.67 376.851 1135 371.138 1126.11 370.196L764.253 331.878C758.862 331.307 753.433 332.54 748.818 335.384L399.997 550.336C394.327 553.83 390.323 559.482 388.908 565.99L325.192 859.043Z" stroke="url(#paint19_radial_1_10)" stroke-opacity="0.5" stroke-width="4.26119"/>
<path opacity="0.304348" d="M299.469 825.817C296.789 835.718 300.559 846.24 308.918 852.185L551.304 1024.59C556.741 1028.46 563.52 1029.94 570.075 1028.7L968.124 953.137C973.471 952.122 978.328 949.355 981.929 945.274L1220.18 675.19C1226.08 668.496 1227.88 659.119 1224.87 650.716L1134.91 399.677C1131.9 391.273 1124.56 385.172 1115.74 383.752L760.178 326.462C754.805 325.596 749.296 326.544 744.521 329.156L389.077 523.609C383.224 526.811 378.93 532.262 377.186 538.702L299.469 825.817Z" stroke="url(#paint20_radial_1_10)" stroke-opacity="0.5" stroke-width="4.26119"/>
<path opacity="0.318841" d="M275.183 792.706C272.021 802.423 275.222 813.082 283.214 819.45L513.934 1003.28C519.162 1007.44 525.864 1009.29 532.488 1008.39L929.448 954.664C934.864 953.931 939.879 951.409 943.696 947.498L1192.66 692.434C1198.88 686.058 1201.15 676.806 1198.59 668.272L1122.4 414.574C1119.84 406.04 1112.85 399.571 1104.14 397.678L755.849 321.969C750.509 320.809 744.934 321.466 740.011 323.838L379.124 497.692C373.102 500.593 368.527 505.829 366.459 512.185L275.183 792.706Z" stroke="url(#paint21_radial_1_10)" stroke-opacity="0.5" stroke-width="4.26119"/>
<path opacity="0.333333" d="M252.342 759.751C248.711 769.261 251.338 780.026 258.942 786.794L477.471 981.293C482.474 985.745 489.08 987.956 495.755 987.411L890.444 955.191C895.913 954.744 901.074 952.475 905.1 948.746L1163.86 709.077C1170.38 703.034 1173.12 693.931 1171.01 685.292L1108.63 429.681C1106.52 421.042 1099.9 414.223 1091.32 411.865L751.248 318.344C745.957 316.889 740.331 317.252 735.271 319.375L370.113 472.598C363.938 475.189 359.093 480.194 356.704 486.45L252.342 759.751Z" stroke="url(#paint22_radial_1_10)" stroke-opacity="0.5" stroke-width="4.26119"/>
<path opacity="0.347826" d="M230.882 727.085C226.794 736.365 228.845 747.204 236.041 754.349L441.902 958.752C446.663 963.479 453.154 966.047 459.861 965.857L851.126 954.758C856.635 954.602 861.929 952.593 866.155 949.057L1133.8 725.105C1140.6 719.409 1143.8 710.478 1142.15 701.758L1093.56 444.979C1091.91 436.258 1085.67 429.112 1077.25 426.297L746.293 315.615C741.067 313.868 735.404 313.933 730.22 315.8L361.949 448.423C355.637 450.697 350.533 455.459 347.828 461.599L230.882 727.085Z" stroke="url(#paint23_radial_1_10)" stroke-opacity="0.5" stroke-width="4.26119"/>
<path opacity="0.362319" d="M210.787 694.758C206.258 703.786 207.732 714.668 214.5 722.165L407.263 935.684C411.767 940.673 418.123 943.593 424.843 943.759L811.568 953.333C817.101 953.469 822.516 951.73 826.933 948.396L1102.53 740.429C1109.6 735.094 1113.24 726.359 1112.05 717.582L1077.2 460.371C1076.02 451.594 1070.18 444.142 1061.95 440.881L740.954 313.736C735.809 311.698 730.125 311.461 724.829 313.065L354.59 425.187C348.157 427.135 342.807 431.641 339.792 437.649L210.787 694.758Z" stroke="url(#paint24_radial_1_10)" stroke-opacity="0.5" stroke-width="4.26119"/>
<path opacity="0.376812" d="M192.026 662.844C187.07 671.598 187.968 682.492 194.292 690.316L373.573 912.143C377.806 917.381 384.009 920.646 390.723 921.17L771.827 950.909C777.368 951.341 782.891 949.877 787.49 946.756L1070.11 754.99C1077.42 750.027 1081.5 741.509 1080.77 732.701L1059.58 475.787C1058.85 466.978 1053.44 459.243 1045.41 455.546L735.192 312.677C730.143 310.352 724.455 309.812 719.059 311.147L347.978 402.926C341.44 404.543 335.856 408.78 332.539 414.64L192.026 662.844Z" stroke="url(#paint25_radial_1_10)" stroke-opacity="0.5" stroke-width="4.26119"/>
<path opacity="0.391304" d="M174.559 631.413C169.194 639.874 169.519 650.748 175.381 658.873L340.847 888.187C344.795 893.659 350.825 897.26 357.515 898.142L731.959 947.484C737.493 948.213 743.111 947.031 747.882 944.132L1036.6 768.728C1044.13 764.149 1048.63 755.871 1048.36 747.055L1040.7 491.157C1040.44 482.34 1035.46 474.346 1027.66 470.226L728.966 312.411C724.031 309.803 718.352 308.959 712.871 310.018L342.05 381.675C335.425 382.956 329.622 386.911 326.008 392.61L174.559 631.413Z" stroke="url(#paint26_radial_1_10)" stroke-opacity="0.5" stroke-width="4.26119"/>
<path opacity="0.405797" d="M158.346 600.532C152.588 608.679 152.345 619.504 157.732 627.901L309.095 863.869C312.746 869.56 318.585 873.489 325.232 874.728L692.019 943.058C697.532 944.085 703.23 943.19 708.162 940.522L1002.04 781.591C1009.78 777.404 1014.68 769.387 1014.88 760.588L1020.58 506.41C1020.78 497.611 1016.24 489.383 1008.7 484.853L722.24 312.905C717.432 310.019 711.78 308.869 706.227 309.648L336.744 361.464C330.049 362.403 324.039 366.066 320.137 371.588L158.346 600.532Z" stroke="url(#paint27_radial_1_10)" stroke-opacity="0.5" stroke-width="4.26119"/>
<path opacity="0.42029" d="M143.341 570.265C137.21 578.081 136.405 588.826 141.303 597.468L278.328 839.248C281.668 845.141 287.299 849.389 293.884 850.982L652.065 937.634C657.54 938.959 663.304 938.357 668.387 935.929L966.51 793.527C974.434 789.742 979.727 782.006 980.383 773.249L999.247 521.483C999.903 512.726 995.822 504.287 988.551 499.363L714.976 314.127C710.312 310.969 704.702 309.514 699.091 310.008L331.995 342.319C325.247 342.913 319.046 346.274 314.865 351.604L143.341 570.265Z" stroke="url(#paint28_radial_1_10)" stroke-opacity="0.5" stroke-width="4.26119"/>
<path opacity="0.434783" d="M129.495 540.674C123.01 548.141 121.65 558.776 126.049 567.635L248.549 814.377C251.567 820.457 256.972 825.012 263.475 826.957L612.15 931.219C617.572 932.841 623.387 932.535 628.61 930.355L930.062 804.491C938.147 801.115 943.814 793.679 944.925 784.987L976.715 536.308C977.827 527.616 974.212 518.994 967.236 513.692L707.14 316.043C702.635 312.619 697.083 310.86 691.427 311.065L327.737 324.263C320.954 324.509 314.577 327.558 310.126 332.682L129.495 540.674Z" stroke="url(#paint29_radial_1_10)" stroke-opacity="0.5" stroke-width="4.26119"/>
<path opacity="0.449275" d="M116.757 511.816C109.938 518.919 108.034 529.414 111.922 538.461L219.759 789.314C222.445 795.562 227.607 800.413 234.011 802.705L572.328 923.822C577.681 925.739 583.534 925.734 588.883 923.808L892.761 814.439C900.986 811.479 907.011 804.361 908.572 795.76L953.018 550.823C954.579 542.221 951.439 533.44 944.778 527.779L698.701 318.615C694.369 314.933 688.891 312.872 683.206 312.785L323.904 307.313C317.103 307.21 310.566 309.938 305.856 314.844L116.757 511.816Z" stroke="url(#paint30_radial_1_10)" stroke-opacity="0.5" stroke-width="4.26119"/>
<path opacity="0.463768" d="M105.076 483.745C97.9438 490.469 95.5053 500.797 98.8769 510.001L191.961 764.113C194.305 770.512 199.209 775.646 205.494 778.281L532.655 915.456C537.924 917.666 543.799 917.964 549.265 916.3L854.679 823.335C863.022 820.795 869.386 814.013 871.39 805.525L928.188 564.968C930.192 556.48 927.534 547.567 921.208 541.564L689.631 321.809C685.487 317.876 680.099 315.515 674.399 315.134L320.432 291.487C313.632 291.033 306.95 293.431 301.991 298.106L105.076 483.745Z" stroke="url(#paint31_radial_1_10)" stroke-opacity="0.5" stroke-width="4.26119"/>
<path opacity="0.478261" d="M94.3922 456.513C86.9684 462.844 84.0083 472.976 86.8565 482.308L165.148 738.828C167.141 745.36 171.77 750.763 177.919 753.735L493.183 906.136C498.351 908.635 504.233 909.239 509.802 907.843L815.879 831.142C824.318 829.028 831.002 822.597 833.442 814.246L902.258 578.684C904.697 570.333 902.526 561.315 896.552 554.99L679.901 325.582C675.959 321.408 670.677 318.751 664.976 318.074L317.25 276.793C310.469 275.987 303.659 278.049 298.463 282.48L94.3922 456.513Z" stroke="url(#paint32_radial_1_10)" stroke-opacity="0.5" stroke-width="4.26119"/>
<path opacity="0.492754" d="M84.6463 430.165C76.9532 436.091 73.4856 446.001 75.8059 455.431L139.312 713.514C140.947 720.159 145.287 725.817 151.281 729.12L453.961 895.88C459.014 898.664 464.888 899.576 470.547 898.454L776.431 837.833C784.944 836.146 791.929 830.082 794.795 821.891L875.264 591.916C878.13 583.724 876.449 574.628 870.845 568.002L669.485 329.897C665.76 325.491 660.599 322.542 654.912 321.568L314.292 263.238C307.547 262.083 300.627 263.802 295.205 267.978L84.6463 430.165Z" stroke="url(#paint33_radial_1_10)" stroke-opacity="0.5" stroke-width="4.26119"/>
<path opacity="0.507246" d="M75.7788 404.745C67.8391 410.255 63.8795 419.917 65.6693 429.413L114.446 688.222C115.716 694.961 119.752 700.859 125.574 704.484L415.041 884.708C419.964 887.773 425.814 888.993 431.551 888.15L736.409 843.381C744.974 842.123 752.239 836.44 755.521 828.431L847.248 604.61C850.53 596.6 849.343 587.453 844.125 580.547L658.363 334.711C654.867 330.085 649.844 326.848 644.186 325.577L311.493 250.826C304.802 249.323 297.788 250.692 292.153 254.602L75.7788 404.745Z" stroke="url(#paint34_radial_1_10)" stroke-opacity="0.5" stroke-width="4.26119"/>
<path opacity="0.521739" d="M67.7265 380.293C59.5633 385.376 55.1284 394.765 56.3869 404.298L90.5366 663.005C91.436 669.818 95.1553 675.941 100.787 679.879L376.473 872.645C381.249 875.986 387.06 877.513 392.862 876.954L695.883 847.765C704.477 846.938 712.001 841.648 715.689 833.842L818.252 616.718C821.94 608.912 821.247 599.741 816.428 592.577L646.514 339.985C643.26 335.148 638.39 331.63 632.776 330.062L308.785 239.556C302.166 237.707 295.075 238.723 289.241 242.356L67.7265 380.293Z" stroke="url(#paint35_radial_1_10)" stroke-opacity="0.5" stroke-width="4.26119"/>
<path opacity="0.536232" d="M60.4232 356.841C52.0602 361.49 47.1681 370.581 47.8961 380.121L67.5668 637.913C68.0908 644.78 71.4807 651.109 76.9063 655.351L338.3 859.716C342.916 863.325 348.673 865.161 354.526 864.889L654.925 850.968C663.526 850.569 671.287 845.685 675.367 838.103L788.322 628.191C792.402 620.608 792.203 611.441 787.797 604.043L633.919 345.673C630.92 340.639 626.217 336.846 620.663 334.981L306.101 229.422C299.572 227.231 292.422 227.889 286.402 231.235L60.4232 356.841Z" stroke="url(#paint36_radial_1_10)" stroke-opacity="0.5" stroke-width="4.26119"/>
<path opacity="0.550725" d="M53.8044 334.423C45.2653 338.629 39.9354 347.401 40.1355 356.917L45.5201 612.994C45.6653 619.895 48.714 626.414 53.9168 630.949L300.57 845.951C305.011 849.822 310.697 851.963 316.588 851.983L613.608 852.978C622.195 853.007 630.17 848.538 634.629 841.2L757.504 638.986C761.963 631.648 762.256 622.511 758.274 614.902L620.563 351.734C617.832 346.515 613.312 342.454 607.831 340.296L303.376 220.417C296.954 217.889 289.763 218.186 283.572 221.236L53.8044 334.423Z" stroke="url(#paint37_radial_1_10)" stroke-opacity="0.5" stroke-width="4.26119"/>
<path opacity="0.565217" d="M47.802 313.063C39.111 316.822 33.3636 325.252 33.0403 334.715L24.3753 588.297C24.1391 595.21 26.8359 601.901 31.8001 606.718L263.326 831.379C267.576 835.504 273.177 837.949 279.092 838.262L572.004 853.786C580.555 854.24 588.722 850.196 593.546 843.121L725.849 649.063C730.672 641.988 731.452 632.908 727.906 625.114L606.435 358.124C603.982 352.733 599.659 348.413 594.267 345.963L300.546 212.528C294.248 209.667 287.035 209.601 280.686 212.347L47.802 313.063Z" stroke="url(#paint38_radial_1_10)" stroke-opacity="0.5" stroke-width="4.26119"/>
<path opacity="0.57971" d="M42.3475 292.785C33.5288 296.091 27.3857 304.16 26.5449 313.54L4.10893 563.866C3.49004 570.77 5.82512 577.614 10.5353 582.701L226.607 816.034C230.654 820.403 236.154 823.15 242.078 823.759L530.186 853.389C538.68 854.262 547.015 850.652 552.187 843.858L693.405 658.382C698.577 651.589 699.84 642.593 696.738 634.638L591.521 364.798C589.358 359.25 585.247 354.679 579.958 351.941L297.547 205.739C291.39 202.551 284.172 202.121 277.681 204.555L42.3475 292.785Z" stroke="url(#paint39_radial_1_10)" stroke-opacity="0.5" stroke-width="4.26119"/>
<path opacity="0.594203" d="M37.3726 273.607C28.4505 276.458 21.9343 284.146 20.5839 293.414L-15.304 539.746C-16.3056 546.621 -14.3412 553.598 -9.89965 558.941L190.454 799.951C194.283 804.557 199.666 807.6 205.587 808.507L488.226 851.787C496.641 853.076 505.122 849.904 510.626 843.41L660.227 666.912C665.731 660.418 667.471 651.533 664.821 643.443L575.816 371.714C573.952 366.022 570.067 361.21 564.896 358.188L294.317 200.03C288.318 196.524 281.113 195.729 274.495 197.844L37.3726 273.607Z" stroke="url(#paint40_radial_1_10)" stroke-opacity="0.5" stroke-width="4.26119"/>
<path opacity="0.608696" d="M32.8099 255.543C23.8088 257.937 16.943 265.226 15.0926 274.355L-33.8887 515.978C-35.2722 522.803 -33.6863 529.894 -29.5274 535.479L154.905 783.167C158.503 787.998 163.755 791.335 169.657 792.54L446.198 848.985C454.513 850.683 463.115 847.956 468.934 841.777L626.371 674.621C632.19 668.443 634.397 659.694 632.205 651.495L559.315 378.827C557.759 373.007 554.114 367.964 549.076 364.662L290.797 195.38C284.973 191.562 277.8 190.404 271.07 192.193L32.8099 255.543Z" stroke="url(#paint41_radial_1_10)" stroke-opacity="0.5" stroke-width="4.26119"/>
<path opacity="0.623188" d="M28.5883 238.603C19.5325 240.539 12.3414 247.414 10.002 256.374L-51.677 492.603C-53.4403 499.356 -52.2398 506.541 -48.3768 512.354L119.992 765.721C123.346 770.768 128.451 774.393 134.322 775.896L404.169 844.992C412.365 847.09 421.064 844.812 427.179 838.965L591.888 681.482C598.004 675.636 600.67 667.048 598.941 658.765L542.013 386.092L544.099 385.656L542.013 386.092C540.775 380.16 537.382 374.898 532.491 371.321L286.928 191.761C281.294 187.641 274.171 186.119 267.345 187.578L28.5883 238.603Z" stroke="url(#paint42_radial_1_10)" stroke-opacity="0.5" stroke-width="4.26119"/>
<path opacity="0.637681" d="M24.6376 222.793C15.5511 224.271 8.05994 230.718 5.2442 239.482L-68.7013 469.659C-70.841 476.319 -70.0316 483.577 -66.4773 489.602L85.7476 747.653C88.845 752.903 93.7883 756.811 99.6123 758.612L362.208 839.819C370.265 842.311 379.037 840.484 385.429 834.983L556.836 687.472C563.228 681.97 566.342 673.568 565.079 665.23L523.908 393.465C522.995 387.438 519.868 381.967 515.138 378.122L282.652 189.144C277.223 184.731 270.168 182.849 263.263 183.972L24.6376 222.793Z" stroke="url(#paint43_radial_1_10)" stroke-opacity="0.5" stroke-width="4.26119"/>
<path opacity="0.652174" d="M20.8921 208.113C11.7989 209.137 4.03362 215.142 0.755859 223.685L-84.9911 447.181C-87.5028 453.727 -87.0893 461.036 -83.8553 467.258L52.2035 729.006C55.0323 734.448 59.7994 738.631 65.5629 740.729L320.387 833.486C328.286 836.361 337.107 834.986 343.757 829.844L521.273 692.569C527.923 687.427 531.472 679.235 530.676 670.867L505.006 400.904C504.425 394.798 501.576 389.132 497.02 385.025L277.917 187.496C272.709 182.801 265.739 180.562 258.771 181.346L20.8921 208.113Z" stroke="url(#paint44_radial_1_10)" stroke-opacity="0.5" stroke-width="4.26119"/>
<path opacity="0.666667" d="M17.2804 194.562C8.20418 195.134 0.191174 200.686 -3.53289 208.982L-100.585 425.202C-103.463 431.614 -103.449 438.953 -100.546 445.354L19.3836 709.822C21.9324 715.443 26.5087 719.895 32.1977 722.288L278.769 826.011C286.491 829.259 295.337 828.337 302.223 823.566L485.254 696.758C492.14 691.987 496.112 684.029 495.784 675.658L485.306 408.364C485.065 402.197 482.504 396.349 478.138 391.987L272.668 186.783C267.695 181.817 260.828 179.225 253.814 179.667L17.2804 194.562Z" stroke="url(#paint45_radial_1_10)" stroke-opacity="0.5" stroke-width="4.26119"/>
<path opacity="0.681159" d="M13.7378 182.134C4.70183 182.259 -3.532 187.347 -7.68517 195.373L-115.516 403.754C-118.754 410.011 -119.141 417.359 -116.58 423.922L-12.6851 690.148C-10.427 695.934 -6.05579 700.647 -0.455388 703.333L237.42 817.419C244.948 821.029 253.795 820.559 260.896 816.17L448.839 700.026C455.941 695.637 460.319 687.935 460.457 679.588L464.818 415.805C464.921 409.594 462.661 403.577 458.496 398.969L266.858 186.967C262.133 181.74 255.388 178.8 248.343 178.898L13.7378 182.134Z" stroke="url(#paint46_radial_1_10)" stroke-opacity="0.5" stroke-width="4.26119"/>
<path opacity="0.695652" d="M10.1974 170.817C1.22453 170.5 -7.20276 175.117 -11.7665 182.849L-129.822 382.865C-133.412 388.947 -134.203 396.282 -131.993 402.989L-43.9814 670.028C-42.0246 675.966 -37.8722 680.931 -32.3742 683.907L196.404 807.74C203.719 811.699 212.544 811.677 219.839 807.68L412.086 702.363C419.381 698.366 424.15 690.941 424.751 682.645L443.55 423.183C444.002 416.947 442.053 410.775 438.103 405.93L260.438 188.005C255.976 182.532 249.369 179.25 242.311 179.001L10.1974 170.817Z" stroke="url(#paint47_radial_1_10)" stroke-opacity="0.5" stroke-width="4.26119"/>
<path opacity="0.710145" d="M6.59407 160.597C-2.29335 159.847 -10.8864 163.985 -15.8408 171.402L-17.6125 170.218L-15.8409 171.402L-143.544 362.563C-147.476 368.449 -148.67 375.749 -146.819 382.581L-74.4866 649.51C-72.8406 655.584 -68.9206 660.792 -63.539 664.054L155.779 797.003C162.866 801.299 171.645 801.721 179.112 798.125L375.051 703.763C382.517 700.167 387.66 693.04 388.72 684.821L421.512 430.458C422.317 424.216 420.689 417.904 416.966 412.83L253.365 189.856C249.177 184.148 242.726 180.531 235.672 179.936L6.59407 160.597Z" stroke="url(#paint48_radial_1_10)" stroke-opacity="0.5" stroke-width="4.26119"/>
<path opacity="0.724638" d="M2.86448 151.457C-5.9156 150.281 -14.6467 153.936 -19.9707 161.016L-156.719 342.869C-160.984 348.541 -162.58 355.783 -161.095 362.722L-104.184 628.64C-102.858 634.836 -99.1836 640.277 -93.9318 643.821L115.605 785.244C122.448 789.863 131.158 790.725 138.774 787.536L337.792 704.224C345.407 701.036 350.906 694.226 352.418 686.11L398.717 437.589C399.878 431.361 398.58 424.924 395.097 419.632L245.597 192.473C241.696 186.546 235.416 182.6 228.382 181.658L2.86448 151.457Z" stroke="url(#paint49_radial_1_10)" stroke-opacity="0.5" stroke-width="4.26119"/>
<path opacity="0.73913" d="M-1.05327 143.375C-9.70484 141.783 -18.5459 144.951 -24.2172 151.676L-169.389 323.806C-173.975 329.244 -175.972 336.407 -174.859 343.434L-133.061 607.467C-132.063 613.769 -128.647 619.433 -123.539 623.255L75.9361 772.502C82.521 777.428 91.1383 778.723 98.8801 775.949L300.365 703.747C308.107 700.972 313.941 694.499 315.898 686.512L375.18 444.539L377.249 445.046L375.18 444.539C376.698 438.343 375.739 431.798 372.508 426.298L237.095 195.81C233.492 189.676 227.4 185.412 220.404 184.124L-1.05327 143.375Z" stroke="url(#paint50_radial_1_10)" stroke-opacity="0.5" stroke-width="4.26119"/>
<path opacity="0.753623" d="M-5.21948 136.325C-13.722 134.328 -22.6451 137.007 -28.6405 143.359L-181.596 305.392C-186.491 310.578 -188.884 317.64 -188.15 324.733L-161.106 586.039C-160.445 592.43 -157.299 598.306 -152.348 602.4L36.8247 758.815C43.1372 764.035 51.6403 765.755 59.485 763.399L262.827 702.335C270.672 699.979 276.821 693.859 279.214 686.026L350.917 451.269C352.793 445.124 352.181 438.488 349.213 432.79L227.823 199.816C224.528 193.491 218.64 188.916 211.698 187.285L-5.21948 136.325Z" stroke="url(#paint51_radial_1_10)" stroke-opacity="0.5" stroke-width="4.26119"/>
<path opacity="0.768116" d="M-9.68936 130.281C-18.0231 127.889 -27.0002 130.08 -33.2953 136.042L-193.378 287.643C-198.569 292.56 -201.354 299.498 -201.003 306.639L-188.31 564.406C-187.992 570.87 -185.129 576.945 -180.347 581.306L-1.677 744.23C4.35022 749.726 12.7173 751.862 20.6415 749.928L225.235 699.997C233.159 698.063 239.602 692.312 242.419 684.658L325.949 457.743C328.184 451.67 327.926 444.959 325.231 439.075L217.752 204.441C214.774 197.941 209.106 193.065 202.234 191.093L-9.68936 130.281Z" stroke="url(#paint52_radial_1_10)" stroke-opacity="0.5" stroke-width="4.26119"/>
<path opacity="0.782609" d="M-14.5212 125.209C-22.6672 122.437 -31.6705 124.14 -38.2402 129.698L-204.782 270.574C-210.255 275.203 -213.426 281.996 -213.46 289.164L-214.671 542.616C-214.702 549.136 -212.133 555.399 -207.534 560.019L-39.5252 728.792C-33.7953 734.549 -25.5853 737.091 -17.605 735.581L187.64 696.744C195.62 695.234 202.334 689.867 205.564 682.415L300.293 463.926C302.887 457.944 302.989 451.176 300.578 445.118L206.848 209.631C204.197 202.972 198.764 197.807 191.978 195.497L-14.5212 125.209Z" stroke="url(#paint53_radial_1_10)" stroke-opacity="0.5" stroke-width="4.26119"/>
<path opacity="0.797101" d="M-19.7667 121.076C-27.7067 117.936 -36.7089 119.155 -43.5271 124.295L-215.849 254.194C-221.587 258.52 -225.137 265.146 -225.559 272.319L-240.184 520.717C-240.57 527.275 -238.307 533.713 -233.902 538.586L-76.6754 712.55C-71.2536 718.548 -63.2212 721.486 -55.2084 720.401L150.096 692.587C158.108 691.502 165.07 686.533 168.7 679.308L273.974 469.783C276.924 463.913 277.392 457.105 275.275 450.886L195.088 215.333C192.772 208.53 187.587 203.087 180.905 200.444L-19.7667 121.076Z" stroke="url(#paint54_radial_1_10)" stroke-opacity="0.5" stroke-width="4.26119"/>
<path opacity="0.811594" d="M-25.4752 117.844C-33.192 114.35 -42.1659 115.091 -49.2061 119.801L-226.619 238.512C-232.607 242.518 -236.528 248.957 -237.339 256.115L-264.85 498.759C-265.596 505.337 -263.648 511.937 -259.451 517.055L-113.086 695.553C-107.983 701.777 -100.148 705.098 -92.1257 704.436L112.654 687.546C120.676 686.884 127.861 682.325 131.876 675.349L247.016 475.282C250.318 469.545 251.158 462.715 249.345 456.349L182.45 221.491C180.477 214.562 175.554 208.853 168.991 205.882L-25.4752 117.844Z" stroke="url(#paint55_radial_1_10)" stroke-opacity="0.5" stroke-width="4.26119"/>
<path opacity="0.826087" d="M-31.6953 115.473C-39.1726 111.642 -48.0916 111.909 -55.3263 116.181L-237.138 223.534C-243.357 227.206 -247.64 233.436 -248.841 240.559L-288.672 476.79C-289.782 483.37 -288.16 490.117 -284.182 495.474L-148.723 677.857C-143.946 684.288 -136.327 687.978 -128.319 687.738L75.3644 681.639C83.372 681.4 90.7566 677.26 95.1399 670.555L219.444 480.394C223.095 474.809 224.31 467.976 222.809 461.475L168.914 228.05C167.289 221.012 162.642 215.05 156.214 211.756L-31.6953 115.473Z" stroke="url(#paint56_radial_1_10)" stroke-opacity="0.5" stroke-width="4.26119"/>
<path opacity="0.84058" d="M-38.4711 113.922C-45.6936 109.769 -54.5315 109.57 -61.9331 113.395L-247.446 209.263C-253.879 212.588 -258.512 218.588 -260.102 225.654L-311.657 454.859C-313.133 461.421 -311.847 468.301 -308.099 473.887L-183.55 659.514C-179.108 666.134 -171.724 670.18 -163.753 670.358L38.2744 674.89C46.2446 675.069 53.8034 671.359 58.5376 664.944L191.284 485.088C195.279 479.676 196.872 472.86 195.692 466.238L154.465 234.952C153.194 227.823 148.835 221.621 142.557 218.011L-38.4711 113.922Z" stroke="url(#paint57_radial_1_10)" stroke-opacity="0.5" stroke-width="4.26119"/>
<path opacity="0.855072" d="M-45.8441 113.144C-52.7976 108.687 -61.529 108.032 -69.0692 111.404L-257.586 195.701C-264.214 198.665 -269.186 204.416 -271.161 211.403L-333.813 433.011C-335.658 439.537 -334.716 446.536 -331.21 452.342L-217.54 640.582C-213.44 647.372 -206.306 651.757 -198.396 652.35L1.43014 667.322C9.34001 667.915 17.0474 664.642 22.1137 658.538L162.565 489.338L164.205 490.699L162.565 489.338C166.897 484.12 168.872 477.339 168.02 470.611L139.091 242.141C138.178 234.938 134.119 228.51 128.006 224.592L-45.8441 113.144Z" stroke="url(#paint58_radial_1_10)" stroke-opacity="0.5" stroke-width="4.26119"/>
<path opacity="0.869565" d="M-53.8513 113.094C-60.5226 108.349 -69.1228 107.25 -76.7731 110.164L-267.597 182.845C-274.4 185.436 -279.699 190.918 -282.057 197.806L-355.15 411.293C-357.365 417.764 -356.775 424.867 -353.522 430.883L-250.664 621.118C-246.911 628.059 -240.045 632.767 -232.218 633.768L-35.1232 658.964C-27.2961 659.964 -19.4663 657.134 -14.0879 651.36L133.318 493.118C137.98 488.114 140.338 481.388 139.821 474.568L122.784 249.559C122.234 242.3 118.485 235.661 112.552 231.442L-53.8513 113.094Z" stroke="url(#paint59_radial_1_10)" stroke-opacity="0.5" stroke-width="4.26119"/>
<path opacity="0.884058" d="M-62.5295 113.723C-68.9065 108.709 -77.3515 107.177 -85.0835 109.63L-277.523 170.692C-284.48 172.899 -290.091 178.094 -292.827 184.861L-375.683 389.751C-378.269 396.147 -378.039 403.338 -375.049 409.555L-282.902 601.179C-279.501 608.252 -272.917 613.268 -265.195 614.669L-71.3457 649.844C-63.6236 651.246 -55.6976 648.863 -50.0282 643.436L103.571 496.405C108.555 491.634 111.297 484.983 111.122 478.086L105.538 257.147C105.353 249.851 101.925 243.016 96.187 238.505L-62.5295 113.723Z" stroke="url(#paint60_radial_1_10)" stroke-opacity="0.5" stroke-width="4.26119"/>
<path opacity="0.898551" d="M-71.9118 114.98C-77.9835 109.716 -86.2503 107.764 -94.0352 109.756L-287.405 159.235C-294.495 161.049 -300.403 165.938 -303.512 172.563L-395.429 368.43C-398.386 374.731 -398.524 381.993 -395.807 388.402L-314.237 580.826C-311.191 588.011 -304.904 593.316 -297.308 595.109L-107.199 639.996C-99.6037 641.79 -91.6082 639.857 -85.67 634.793L73.355 499.177C78.6514 494.66 81.7766 488.104 81.9503 481.145L87.3492 264.85C87.5318 257.534 84.4344 250.519 78.9046 245.725L-71.9118 114.98Z" stroke="url(#paint61_radial_1_10)" stroke-opacity="0.5" stroke-width="4.26119"/>
<path opacity="0.913043" d="M-82.0226 116.814C-87.7793 111.319 -95.8459 108.963 -103.655 110.494L-297.277 148.466C-304.478 149.878 -310.667 154.443 -314.142 160.906L-414.405 347.372C-417.731 353.559 -418.242 360.876 -415.809 367.465L-344.649 560.119C-341.961 567.397 -335.984 572.972 -328.536 575.148L-142.643 629.454C-135.195 631.629 -127.157 630.149 -120.973 625.462L42.7058 501.413C48.3041 497.17 51.8121 490.729 52.3392 483.724L68.2242 272.609C68.7748 265.291 66.0168 258.112 60.7086 253.046L-82.0226 116.814Z" stroke="url(#paint62_radial_1_10)" stroke-opacity="0.5" stroke-width="4.26119"/>
<path opacity="0.927536" d="M-92.8887 119.172C-98.3217 113.466 -106.167 110.721 -113.972 111.795L-307.181 138.374C-314.47 139.377 -320.923 143.602 -324.756 149.883L-432.631 326.62C-436.325 332.672 -437.216 340.028 -435.074 346.787L-374.131 539.118C-371.801 546.47 -366.146 552.296 -358.866 554.844L-177.645 618.252C-170.366 620.8 -162.311 619.77 -155.906 615.475L11.655 503.097C17.5435 499.148 21.4326 492.841 22.3177 485.807L48.166 280.368C49.0845 273.068 46.6738 265.741 41.6001 260.413L-92.8887 119.172Z" stroke="url(#paint63_radial_1_10)" stroke-opacity="0.5" stroke-width="4.26119"/>
<path opacity="0.942029" d="M-104.532 122.001C-109.634 116.104 -117.238 112.987 -125.011 113.608L-317.154 128.947C-324.508 129.534 -331.206 133.404 -335.388 139.481L-450.133 306.214C-454.191 312.111 -455.467 319.487 -453.626 326.405L-402.675 517.883C-400.704 525.29 -395.381 531.347 -388.288 534.254L-212.174 606.429C-205.082 609.336 -197.039 608.756 -190.437 604.863L-19.7641 504.211C-13.5982 500.575 -9.33075 494.424 -8.08348 487.375L27.1825 288.07C28.4679 280.806 26.4117 273.349 21.5849 267.77L-104.532 122.001Z" stroke="url(#paint64_radial_1_10)" stroke-opacity="0.5" stroke-width="4.26119"/>
<path opacity="0.956522" d="M-116.969 125.245C-121.734 119.177 -129.078 115.708 -136.791 115.881L-327.23 120.17C-334.625 120.336 -341.549 123.835 -346.07 129.689L-466.934 286.192C-471.352 291.914 -473.019 299.294 -471.487 306.359L-430.277 496.475C-428.664 503.917 -423.682 510.186 -416.796 513.439L-246.201 594.024C-239.315 597.277 -231.309 597.143 -224.536 593.662L-51.5163 504.743C-45.0868 501.439 -40.4445 495.464 -38.8317 488.417L5.28638 295.662C6.93675 288.451 5.24126 280.881 0.672927 275.063L-116.969 125.245Z" stroke="url(#paint65_radial_1_10)" stroke-opacity="0.5" stroke-width="4.26119"/>
<path opacity="0.971014" d="M-130.216 128.849C-134.638 122.631 -141.705 118.828 -149.332 118.563L-337.445 112.025C-344.857 111.767 -351.988 114.881 -356.837 120.493L-483.063 266.592C-487.837 272.118 -489.897 279.484 -488.683 286.685L-456.938 474.953C-455.681 482.412 -451.049 488.872 -444.388 492.456L-279.698 581.076C-273.038 584.66 -265.095 584.967 -258.177 581.908L-83.5674 504.68C-76.8894 501.726 -71.8768 495.948 -69.8955 488.92L-17.5082 303.088C-15.4957 295.949 -16.8252 288.283 -21.1238 282.239L-130.216 128.849Z" stroke="url(#paint66_radial_1_10)" stroke-opacity="0.5" stroke-width="4.26119"/>
<path opacity="0.985507" d="M-144.281 132.759C-148.357 126.411 -155.131 122.294 -162.644 121.6L-347.831 104.495C-355.236 103.811 -362.552 106.527 -367.716 111.879L-498.548 247.45C-503.672 252.759 -506.13 260.094 -505.241 267.418L-482.662 453.379C-481.757 460.835 -477.481 467.464 -471.062 471.365L-312.644 567.628C-306.225 571.528 -298.371 572.269 -291.336 569.638L-115.881 504.012C-108.971 501.427 -103.593 495.866 -101.241 488.873L-41.1821 310.296C-38.8114 303.248 -39.7704 295.504 -43.7888 289.246L-144.281 132.759Z" stroke="url(#paint67_radial_1_10)" stroke-opacity="0.5" stroke-width="4.26119"/>
<path d="M-159.173 136.918C-162.901 130.46 -169.367 126.052 -176.74 124.941L-358.421 97.5596C-365.794 96.4483 -373.272 98.7551 -378.738 103.827L-513.422 228.799C-518.888 233.87 -521.747 241.155 -521.189 248.591L-507.457 431.809C-506.899 439.245 -502.986 446.022 -496.825 450.223L-345.017 553.721C-338.856 557.921 -331.118 559.087 -323.993 556.889L-148.424 502.731C-141.298 500.533 -135.562 495.21 -132.838 488.269L-65.715 317.236C-62.9909 310.295 -63.5759 302.491 -67.3042 296.034L-159.173 136.918Z" stroke="url(#paint68_radial_1_10)" stroke-opacity="0.5" stroke-width="4.26119"/>
</g>
<defs>
<radialGradient id="paint0_radial_1_10" cx="0" cy="0" r="1" gradientUnits="userSpaceOnUse" gradientTransform="translate(1202.09 821.935) rotate(10.2849) scale(386.17 603.491)">
<stop offset="0.473958" stop-color="#FFC640"/>
<stop offset="1" stop-color="#F2AF13"/>
</radialGradient>
<radialGradient id="paint1_radial_1_10" cx="0" cy="0" r="1" gradientUnits="userSpaceOnUse" gradientTransform="translate(1180 814.615) rotate(13.2849) scale(384.04 598.165)">
<stop offset="0.473958" stop-color="#FFC640"/>
<stop offset="1" stop-color="#F2AF13"/>
</radialGradient>
<radialGradient id="paint2_radial_1_10" cx="0" cy="0" r="1" gradientUnits="userSpaceOnUse" gradientTransform="translate(1157.92 807.295) rotate(16.2849) scale(381.909 592.838)">
<stop offset="0.473958" stop-color="#FFC640"/>
<stop offset="1" stop-color="#F2AF13"/>
</radialGradient>
<radialGradient id="paint3_radial_1_10" cx="0" cy="0" r="1" gradientUnits="userSpaceOnUse" gradientTransform="translate(1135.83 799.973) rotate(19.2849) scale(379.779 587.512)">
<stop offset="0.473958" stop-color="#FFC640"/>
<stop offset="1" stop-color="#F2AF13"/>
</radialGradient>
<radialGradient id="paint4_radial_1_10" cx="0" cy="0" r="1" gradientUnits="userSpaceOnUse" gradientTransform="translate(1113.75 792.653) rotate(22.2849) scale(377.648 582.185)">
<stop offset="0.473958" stop-color="#FFC640"/>
<stop offset="1" stop-color="#F2AF13"/>
</radialGradient>
<radialGradient id="paint5_radial_1_10" cx="0" cy="0" r="1" gradientUnits="userSpaceOnUse" gradientTransform="translate(1091.67 785.332) rotate(25.2849) scale(375.517 576.859)">
<stop offset="0.473958" stop-color="#FFC640"/>
<stop offset="1" stop-color="#F2AF13"/>
</radialGradient>
<radialGradient id="paint6_radial_1_10" cx="0" cy="0" r="1" gradientUnits="userSpaceOnUse" gradientTransform="translate(1069.58 778.012) rotate(28.2849) scale(373.387 571.532)">
<stop offset="0.473958" stop-color="#FFC640"/>
<stop offset="1" stop-color="#F2AF13"/>
</radialGradient>
<radialGradient id="paint7_radial_1_10" cx="0" cy="0" r="1" gradientUnits="userSpaceOnUse" gradientTransform="translate(1047.5 770.69) rotate(31.2849) scale(371.256 566.206)">
<stop offset="0.473958" stop-color="#FFC640"/>
<stop offset="1" stop-color="#F2AF13"/>
</radialGradient>
<radialGradient id="paint8_radial_1_10" cx="0" cy="0" r="1" gradientUnits="userSpaceOnUse" gradientTransform="translate(1025.41 763.37) rotate(34.2849) scale(369.126 560.879)">
<stop offset="0.473958" stop-color="#FFC640"/>
<stop offset="1" stop-color="#F2AF13"/>
</radialGradient>
<radialGradient id="paint9_radial_1_10" cx="0" cy="0" r="1" gradientUnits="userSpaceOnUse" gradientTransform="translate(1003.33 756.05) rotate(37.2849) scale(366.995 555.553)">
<stop offset="0.473958" stop-color="#FFC640"/>
<stop offset="1" stop-color="#F2AF13"/>
</radialGradient>
<radialGradient id="paint10_radial_1_10" cx="0" cy="0" r="1" gradientUnits="userSpaceOnUse" gradientTransform="translate(981.242 748.729) rotate(40.2849) scale(364.864 550.226)">
<stop offset="0.473958" stop-color="#FFC640"/>
<stop offset="1" stop-color="#F2AF13"/>
</radialGradient>
<radialGradient id="paint11_radial_1_10" cx="0" cy="0" r="1" gradientUnits="userSpaceOnUse" gradientTransform="translate(959.157 741.408) rotate(43.2849) scale(362.734 544.9)">
<stop offset="0.473958" stop-color="#FFC640"/>
<stop offset="1" stop-color="#F2AF13"/>
</radialGradient>
<radialGradient id="paint12_radial_1_10" cx="0" cy="0" r="1" gradientUnits="userSpaceOnUse" gradientTransform="translate(937.073 734.088) rotate(46.2849) scale(360.603 539.573)">
<stop offset="0.473958" stop-color="#FFC640"/>
<stop offset="1" stop-color="#F2AF13"/>
</radialGradient>
<radialGradient id="paint13_radial_1_10" cx="0" cy="0" r="1" gradientUnits="userSpaceOnUse" gradientTransform="translate(914.988 726.767) rotate(49.2849) scale(358.473 534.247)">
<stop offset="0.473958" stop-color="#FFC640"/>
<stop offset="1" stop-color="#F2AF13"/>
</radialGradient>
<radialGradient id="paint14_radial_1_10" cx="0" cy="0" r="1" gradientUnits="userSpaceOnUse" gradientTransform="translate(892.903 719.446) rotate(52.2849) scale(356.342 528.92)">
<stop offset="0.473958" stop-color="#FFC640"/>
<stop offset="1" stop-color="#F2AF13"/>
</radialGradient>
<radialGradient id="paint15_radial_1_10" cx="0" cy="0" r="1" gradientUnits="userSpaceOnUse" gradientTransform="translate(870.818 712.125) rotate(55.2849) scale(354.211 523.594)">
<stop offset="0.473958" stop-color="#FFC640"/>
<stop offset="1" stop-color="#F2AF13"/>
</radialGradient>
<radialGradient id="paint16_radial_1_10" cx="0" cy="0" r="1" gradientUnits="userSpaceOnUse" gradientTransform="translate(848.734 704.804) rotate(58.2849) scale(352.081 518.267)">
<stop offset="0.473958" stop-color="#FFC640"/>
<stop offset="1" stop-color="#F2AF13"/>
</radialGradient>
<radialGradient id="paint17_radial_1_10" cx="0" cy="0" r="1" gradientUnits="userSpaceOnUse" gradientTransform="translate(826.648 697.484) rotate(61.2849) scale(349.95 512.941)">
<stop offset="0.473958" stop-color="#FFC640"/>
<stop offset="1" stop-color="#F2AF13"/>
</radialGradient>
<radialGradient id="paint18_radial_1_10" cx="0" cy="0" r="1" gradientUnits="userSpaceOnUse" gradientTransform="translate(804.564 690.163) rotate(64.2849) scale(347.82 507.614)">
<stop offset="0.473958" stop-color="#FFC640"/>
<stop offset="1" stop-color="#F2AF13"/>
</radialGradient>
<radialGradient id="paint19_radial_1_10" cx="0" cy="0" r="1" gradientUnits="userSpaceOnUse" gradientTransform="translate(782.479 682.843) rotate(67.2849) scale(345.689 502.288)">
<stop offset="0.473958" stop-color="#FFC640"/>
<stop offset="1" stop-color="#F2AF13"/>
</radialGradient>
<radialGradient id="paint20_radial_1_10" cx="0" cy="0" r="1" gradientUnits="userSpaceOnUse" gradientTransform="translate(760.395 675.522) rotate(70.2849) scale(343.558 496.961)">
<stop offset="0.473958" stop-color="#FFC640"/>
<stop offset="1" stop-color="#F2AF13"/>
</radialGradient>
<radialGradient id="paint21_radial_1_10" cx="0" cy="0" r="1" gradientUnits="userSpaceOnUse" gradientTransform="translate(738.305 668.208) rotate(73.2849) scale(341.428 491.635)">
<stop offset="0.473958" stop-color="#FFC640"/>
<stop offset="1" stop-color="#F2AF13"/>
</radialGradient>
<radialGradient id="paint22_radial_1_10" cx="0" cy="0" r="1" gradientUnits="userSpaceOnUse" gradientTransform="translate(716.237 660.863) rotate(76.2849) scale(339.297 486.308)">
<stop offset="0.473958" stop-color="#FFC640"/>
<stop offset="1" stop-color="#F2AF13"/>
</radialGradient>
<radialGradient id="paint23_radial_1_10" cx="0" cy="0" r="1" gradientUnits="userSpaceOnUse" gradientTransform="translate(694.152 653.543) rotate(79.2849) scale(337.167 480.982)">
<stop offset="0.473958" stop-color="#FFC640"/>
<stop offset="1" stop-color="#F2AF13"/>
</radialGradient>
<radialGradient id="paint24_radial_1_10" cx="0" cy="0" r="1" gradientUnits="userSpaceOnUse" gradientTransform="translate(672.067 646.222) rotate(82.2849) scale(335.036 475.655)">
<stop offset="0.473958" stop-color="#FFC640"/>
<stop offset="1" stop-color="#F2AF13"/>
</radialGradient>
<radialGradient id="paint25_radial_1_10" cx="0" cy="0" r="1" gradientUnits="userSpaceOnUse" gradientTransform="translate(649.982 638.901) rotate(85.2849) scale(332.905 470.329)">
<stop offset="0.473958" stop-color="#FFC640"/>
<stop offset="1" stop-color="#F2AF13"/>
</radialGradient>
<radialGradient id="paint26_radial_1_10" cx="0" cy="0" r="1" gradientUnits="userSpaceOnUse" gradientTransform="translate(627.897 631.581) rotate(88.2849) scale(330.775 465.002)">
<stop offset="0.473958" stop-color="#FFC640"/>
<stop offset="1" stop-color="#F2AF13"/>
</radialGradient>
<radialGradient id="paint27_radial_1_10" cx="0" cy="0" r="1" gradientUnits="userSpaceOnUse" gradientTransform="translate(605.813 624.26) rotate(91.2849) scale(328.644 459.676)">
<stop offset="0.473958" stop-color="#FFC640"/>
<stop offset="1" stop-color="#F2AF13"/>
</radialGradient>
<radialGradient id="paint28_radial_1_10" cx="0" cy="0" r="1" gradientUnits="userSpaceOnUse" gradientTransform="translate(583.729 616.939) rotate(94.2849) scale(326.514 454.349)">
<stop offset="0.473958" stop-color="#FFC640"/>
<stop offset="1" stop-color="#F2AF13"/>
</radialGradient>
<radialGradient id="paint29_radial_1_10" cx="0" cy="0" r="1" gradientUnits="userSpaceOnUse" gradientTransform="translate(561.644 609.619) rotate(97.2849) scale(324.383 449.023)">
<stop offset="0.473958" stop-color="#FFC640"/>
<stop offset="1" stop-color="#F2AF13"/>
</radialGradient>
<radialGradient id="paint30_radial_1_10" cx="0" cy="0" r="1" gradientUnits="userSpaceOnUse" gradientTransform="translate(539.558 602.298) rotate(100.285) scale(322.253 443.696)">
<stop offset="0.473958" stop-color="#FFC640"/>
<stop offset="1" stop-color="#F2AF13"/>
</radialGradient>
<radialGradient id="paint31_radial_1_10" cx="0" cy="0" r="1" gradientUnits="userSpaceOnUse" gradientTransform="translate(517.474 594.977) rotate(103.285) scale(320.122 438.37)">
<stop offset="0.473958" stop-color="#FFC640"/>
<stop offset="1" stop-color="#F2AF13"/>
</radialGradient>
<radialGradient id="paint32_radial_1_10" cx="0" cy="0" r="1" gradientUnits="userSpaceOnUse" gradientTransform="translate(495.39 587.656) rotate(106.285) scale(317.991 433.043)">
<stop offset="0.473958" stop-color="#FFC640"/>
<stop offset="1" stop-color="#F2AF13"/>
</radialGradient>
<radialGradient id="paint33_radial_1_10" cx="0" cy="0" r="1" gradientUnits="userSpaceOnUse" gradientTransform="translate(473.304 580.336) rotate(109.285) scale(315.861 427.717)">
<stop offset="0.473958" stop-color="#FFC640"/>
<stop offset="1" stop-color="#F2AF13"/>
</radialGradient>
<radialGradient id="paint34_radial_1_10" cx="0" cy="0" r="1" gradientUnits="userSpaceOnUse" gradientTransform="translate(451.219 573.015) rotate(112.285) scale(313.73 422.39)">
<stop offset="0.473958" stop-color="#FFC640"/>
<stop offset="1" stop-color="#F2AF13"/>
</radialGradient>
<radialGradient id="paint35_radial_1_10" cx="0" cy="0" r="1" gradientUnits="userSpaceOnUse" gradientTransform="translate(429.135 565.695) rotate(115.285) scale(311.599 417.064)">
<stop offset="0.473958" stop-color="#FFC640"/>
<stop offset="1" stop-color="#F2AF13"/>
</radialGradient>
<radialGradient id="paint36_radial_1_10" cx="0" cy="0" r="1" gradientUnits="userSpaceOnUse" gradientTransform="translate(407.05 558.373) rotate(118.285) scale(309.469 411.737)">
<stop offset="0.473958" stop-color="#FFC640"/>
<stop offset="1" stop-color="#F2AF13"/>
</radialGradient>
<radialGradient id="paint37_radial_1_10" cx="0" cy="0" r="1" gradientUnits="userSpaceOnUse" gradientTransform="translate(384.966 551.053) rotate(121.285) scale(307.338 406.411)">
<stop offset="0.473958" stop-color="#FFC640"/>
<stop offset="1" stop-color="#F2AF13"/>
</radialGradient>
<radialGradient id="paint38_radial_1_10" cx="0" cy="0" r="1" gradientUnits="userSpaceOnUse" gradientTransform="translate(362.881 543.732) rotate(124.285) scale(305.208 401.085)">
<stop offset="0.473958" stop-color="#FFC640"/>
<stop offset="1" stop-color="#F2AF13"/>
</radialGradient>
<radialGradient id="paint39_radial_1_10" cx="0" cy="0" r="1" gradientUnits="userSpaceOnUse" gradientTransform="translate(340.796 536.411) rotate(127.285) scale(303.077 395.758)">
<stop offset="0.473958" stop-color="#FFC640"/>
<stop offset="1" stop-color="#F2AF13"/>
</radialGradient>
<radialGradient id="paint40_radial_1_10" cx="0" cy="0" r="1" gradientUnits="userSpaceOnUse" gradientTransform="translate(318.711 529.091) rotate(130.285) scale(300.947 390.432)">
<stop offset="0.473958" stop-color="#FFC640"/>
<stop offset="1" stop-color="#F2AF13"/>
</radialGradient>
<radialGradient id="paint41_radial_1_10" cx="0" cy="0" r="1" gradientUnits="userSpaceOnUse" gradientTransform="translate(296.627 521.77) rotate(133.285) scale(298.816 385.105)">
<stop offset="0.473958" stop-color="#FFC640"/>
<stop offset="1" stop-color="#F2AF13"/>
</radialGradient>
<radialGradient id="paint42_radial_1_10" cx="0" cy="0" r="1" gradientUnits="userSpaceOnUse" gradientTransform="translate(274.543 514.449) rotate(136.285) scale(296.685 379.779)">
<stop offset="0.473958" stop-color="#FFC640"/>
<stop offset="1" stop-color="#F2AF13"/>
</radialGradient>
<radialGradient id="paint43_radial_1_10" cx="0" cy="0" r="1" gradientUnits="userSpaceOnUse" gradientTransform="translate(252.457 507.128) rotate(139.285) scale(294.555 374.452)">
<stop offset="0.473958" stop-color="#FFC640"/>
<stop offset="1" stop-color="#F2AF13"/>
</radialGradient>
<radialGradient id="paint44_radial_1_10" cx="0" cy="0" r="1" gradientUnits="userSpaceOnUse" gradientTransform="translate(230.373 499.808) rotate(142.285) scale(292.424 369.126)">
<stop offset="0.473958" stop-color="#FFC640"/>
<stop offset="1" stop-color="#F2AF13"/>
</radialGradient>
<radialGradient id="paint45_radial_1_10" cx="0" cy="0" r="1" gradientUnits="userSpaceOnUse" gradientTransform="translate(208.287 492.487) rotate(145.285) scale(290.294 363.799)">
<stop offset="0.473958" stop-color="#FFC640"/>
<stop offset="1" stop-color="#F2AF13"/>
</radialGradient>
<radialGradient id="paint46_radial_1_10" cx="0" cy="0" r="1" gradientUnits="userSpaceOnUse" gradientTransform="translate(186.203 485.166) rotate(148.285) scale(288.163 358.473)">
<stop offset="0.473958" stop-color="#FFC640"/>
<stop offset="1" stop-color="#F2AF13"/>
</radialGradient>
<radialGradient id="paint47_radial_1_10" cx="0" cy="0" r="1" gradientUnits="userSpaceOnUse" gradientTransform="translate(164.118 477.846) rotate(151.285) scale(286.032 353.146)">
<stop offset="0.473958" stop-color="#FFC640"/>
<stop offset="1" stop-color="#F2AF13"/>
</radialGradient>
<radialGradient id="paint48_radial_1_10" cx="0" cy="0" r="1" gradientUnits="userSpaceOnUse" gradientTransform="translate(142.034 470.525) rotate(154.285) scale(283.902 347.82)">
<stop offset="0.473958" stop-color="#FFC640"/>
<stop offset="1" stop-color="#F2AF13"/>
</radialGradient>
<radialGradient id="paint49_radial_1_10" cx="0" cy="0" r="1" gradientUnits="userSpaceOnUse" gradientTransform="translate(119.949 463.204) rotate(157.285) scale(281.771 342.493)">
<stop offset="0.473958" stop-color="#FFC640"/>
<stop offset="1" stop-color="#F2AF13"/>
</radialGradient>
<radialGradient id="paint50_radial_1_10" cx="0" cy="0" r="1" gradientUnits="userSpaceOnUse" gradientTransform="translate(97.8646 455.884) rotate(160.285) scale(279.641 337.167)">
<stop offset="0.473958" stop-color="#FFC640"/>
<stop offset="1" stop-color="#F2AF13"/>
</radialGradient>
<radialGradient id="paint51_radial_1_10" cx="0" cy="0" r="1" gradientUnits="userSpaceOnUse" gradientTransform="translate(75.7792 448.563) rotate(163.285) scale(277.51 331.84)">
<stop offset="0.473958" stop-color="#FFC640"/>
<stop offset="1" stop-color="#F2AF13"/>
</radialGradient>
<radialGradient id="paint52_radial_1_10" cx="0" cy="0" r="1" gradientUnits="userSpaceOnUse" gradientTransform="translate(53.6956 441.242) rotate(166.285) scale(275.379 326.514)">
<stop offset="0.473958" stop-color="#FFC640"/>
<stop offset="1" stop-color="#F2AF13"/>
</radialGradient>
<radialGradient id="paint53_radial_1_10" cx="0" cy="0" r="1" gradientUnits="userSpaceOnUse" gradientTransform="translate(31.6106 433.922) rotate(169.285) scale(273.249 321.187)">
<stop offset="0.473958" stop-color="#FFC640"/>
<stop offset="1" stop-color="#F2AF13"/>
</radialGradient>
<radialGradient id="paint54_radial_1_10" cx="0" cy="0" r="1" gradientUnits="userSpaceOnUse" gradientTransform="translate(9.52552 426.601) rotate(172.285) scale(271.118 315.861)">
<stop offset="0.473958" stop-color="#FFC640"/>
<stop offset="1" stop-color="#F2AF13"/>
</radialGradient>
<radialGradient id="paint55_radial_1_10" cx="0" cy="0" r="1" gradientUnits="userSpaceOnUse" gradientTransform="translate(-12.5589 419.28) rotate(175.285) scale(268.988 310.534)">
<stop offset="0.473958" stop-color="#FFC640"/>
<stop offset="1" stop-color="#F2AF13"/>
</radialGradient>
<radialGradient id="paint56_radial_1_10" cx="0" cy="0" r="1" gradientUnits="userSpaceOnUse" gradientTransform="translate(-34.6438 411.959) rotate(178.285) scale(266.857 305.208)">
<stop offset="0.473958" stop-color="#FFC640"/>
<stop offset="1" stop-color="#F2AF13"/>
</radialGradient>
<radialGradient id="paint57_radial_1_10" cx="0" cy="0" r="1" gradientUnits="userSpaceOnUse" gradientTransform="translate(-56.7287 404.638) rotate(-178.715) scale(264.726 299.881)">
<stop offset="0.473958" stop-color="#FFC640"/>
<stop offset="1" stop-color="#F2AF13"/>
</radialGradient>
<radialGradient id="paint58_radial_1_10" cx="0" cy="0" r="1" gradientUnits="userSpaceOnUse" gradientTransform="translate(-78.8137 397.318) rotate(-175.715) scale(262.596 294.555)">
<stop offset="0.473958" stop-color="#FFC640"/>
<stop offset="1" stop-color="#F2AF13"/>
</radialGradient>
<radialGradient id="paint59_radial_1_10" cx="0" cy="0" r="1" gradientUnits="userSpaceOnUse" gradientTransform="translate(-100.898 389.997) rotate(-172.715) scale(260.465 289.228)">
<stop offset="0.473958" stop-color="#FFC640"/>
<stop offset="1" stop-color="#F2AF13"/>
</radialGradient>
<radialGradient id="paint60_radial_1_10" cx="0" cy="0" r="1" gradientUnits="userSpaceOnUse" gradientTransform="translate(-122.982 382.676) rotate(-169.715) scale(258.335 283.902)">
<stop offset="0.473958" stop-color="#FFC640"/>
<stop offset="1" stop-color="#F2AF13"/>
</radialGradient>
<radialGradient id="paint61_radial_1_10" cx="0" cy="0" r="1" gradientUnits="userSpaceOnUse" gradientTransform="translate(-145.068 375.355) rotate(-166.715) scale(256.204 278.575)">
<stop offset="0.473958" stop-color="#FFC640"/>
<stop offset="1" stop-color="#F2AF13"/>
</radialGradient>
<radialGradient id="paint62_radial_1_10" cx="0" cy="0" r="1" gradientUnits="userSpaceOnUse" gradientTransform="translate(-167.152 368.035) rotate(-163.715) scale(254.073 273.249)">
<stop offset="0.473958" stop-color="#FFC640"/>
<stop offset="1" stop-color="#F2AF13"/>
</radialGradient>
<radialGradient id="paint63_radial_1_10" cx="0" cy="0" r="1" gradientUnits="userSpaceOnUse" gradientTransform="translate(-189.236 360.714) rotate(-160.715) scale(251.943 267.922)">
<stop offset="0.473958" stop-color="#FFC640"/>
<stop offset="1" stop-color="#F2AF13"/>
</radialGradient>
<radialGradient id="paint64_radial_1_10" cx="0" cy="0" r="1" gradientUnits="userSpaceOnUse" gradientTransform="translate(-211.321 353.393) rotate(-157.715) scale(249.812 262.596)">
<stop offset="0.473958" stop-color="#FFC640"/>
<stop offset="1" stop-color="#F2AF13"/>
</radialGradient>
<radialGradient id="paint65_radial_1_10" cx="0" cy="0" r="1" gradientUnits="userSpaceOnUse" gradientTransform="translate(-233.406 346.073) rotate(-154.715) scale(247.682 257.269)">
<stop offset="0.473958" stop-color="#FFC640"/>
<stop offset="1" stop-color="#F2AF13"/>
</radialGradient>
<radialGradient id="paint66_radial_1_10" cx="0" cy="0" r="1" gradientUnits="userSpaceOnUse" gradientTransform="translate(-255.491 338.752) rotate(-151.715) scale(245.551 251.943)">
<stop offset="0.473958" stop-color="#FFC640"/>
<stop offset="1" stop-color="#F2AF13"/>
</radialGradient>
<radialGradient id="paint67_radial_1_10" cx="0" cy="0" r="1" gradientUnits="userSpaceOnUse" gradientTransform="translate(-277.576 331.431) rotate(-148.715) scale(243.42 246.616)">
<stop offset="0.473958" stop-color="#FFC640"/>
<stop offset="1" stop-color="#F2AF13"/>
</radialGradient>
<radialGradient id="paint68_radial_1_10" cx="0" cy="0" r="1" gradientUnits="userSpaceOnUse" gradientTransform="translate(-299.661 324.11) rotate(-145.715) scale(241.29)">
<stop offset="0.473958" stop-color="#FFC640"/>
<stop offset="1" stop-color="#F2AF13"/>
</radialGradient>
<clipPath id="clip0_1_10">
<rect width="1440" height="1400" fill="white"/>
</clipPath>
</defs>
</svg>
